<svg t="1752343727398" class="icon" viewBox="0 0 1024 1024" version="1.1" xmlns="http://www.w3.org/2000/svg" p-id="6684" width="200" height="200"><path d="M236.596947 405.927009l69.842079-49.008859a18.63495 18.63495 0 0 1 21.608451 0.133661l68.398545 49.294001a18.647425 18.647425 0 0 0 21.84013-0.026732l66.322351-48.073235c6.665205-4.8296 15.709567-4.722672 22.250022 0.267321l73.557841 56.110688a18.659009 18.659009 0 0 0 22.454968 0.124749l70.002472-52.198889a18.645643 18.645643 0 0 1 22.419325 0.098017l68.362902 51.878105a18.650098 18.650098 0 0 0 22.659914-0.089107l59.158148-45.622792c0.374249-6.691937 0.579196-13.437338 0.579195-20.218382 0-21.501523-1.933622-42.539689-5.613742-62.963017l-56.003759 45.337649c-5.070189 4.098923-12.270036 4.259315-17.500618 0.37425l-73.602395-54.542404a14.293656 14.293656 0 0 0-16.876868-0.106929l-76.560748 55.255261a14.292765 14.292765 0 0 1-16.63628 0.071285l-78.467638-55.665152c-4.891975-3.466263-11.43243-3.519727-16.368958-0.115839l-71.945005 49.498947a14.294547 14.294547 0 0 1-16.458065-0.178214l-73.602395-53.045407a14.290983 14.290983 0 0 0-16.663012-0.035642l-74.17268 52.983031a14.301676 14.301676 0 0 1-16.707565-0.062375l-55.478028-40.303103c-3.742495 20.592631-5.71176 41.817922-5.711759 63.50657 0 3.510816 0.071286 7.012722 0.169303 10.496806 2.316782 0.721767 4.544458 1.915801 6.549365 3.626656l49.383108 42.129797c6.469169 5.506814 15.852138 5.952349 22.811396 1.069284z" p-id="6685"></path><path d="M176.369516 235.322717l47.681164 37.264554a14.292765 14.292765 0 0 0 17.652099-0.044554l70.670774-55.76317a14.283855 14.283855 0 0 1 17.857046 0.12475l68.184688 55.317635a14.292765 14.292765 0 0 0 17.955064 0.044554l69.013383-55.469117c5.168207-4.161298 12.528446-4.205851 17.759029-0.12475l78.87753 61.644233a14.299894 14.299894 0 0 0 17.571903 0.026732l73.335074-56.966115c5.159296-4.009816 12.376964-4.009816 17.536261 0l73.210323 56.868097c5.230582 4.06328 12.564089 4.000905 17.723386-0.142571l46.968308-37.736821c0.204946-0.169303 0.392071-0.356428 0.588106-0.534642C783.838772 100.575088 654.464296 0 501.868532 0c-150.920552 0-279.136637 98.383056-325.570302 235.278164 0.017821 0.017821 0.044554 0.026732 0.071286 0.044553zM838.158409 423.124663l-55.175064 45.22181c-6.593919 5.399885-16.012531 5.649385-22.873771 0.597017l-66.482744-48.955394a18.660791 18.660791 0 0 0-22.205469 0.062375l-70.082667 52.252354a18.648316 18.648316 0 0 1-22.570807-0.213857l-74.796429-57.964114c-6.709758-5.194939-16.083816-5.21276-22.802485-0.026732l-65.342175 50.354375a18.652772 18.652772 0 0 1-23.158913-0.311875l-64.549122-52.599871c-6.798865-5.533546-16.529351-5.595921-23.390592-0.133661l-60.85118 48.447485c-6.504812 5.177118-15.656103 5.426617-22.428236 0.597017l-56.467116-40.213996a349.187226 349.187226 0 0 0 55.299814 128.830922h-0.008911l142.687064 322.74561 24.77175 152.185872H607.166292l24.771751-143.337545 150.412642-329.143494h-0.605928a349.039308 349.039308 0 0 0 56.413652-128.394298zM383.84629 862.751945L279.894046 613.48398c-0.418803-0.997999 0.873249-1.826694 1.603926-1.033641l116.551977 125.587427c3.457352 3.724673 5.872152 8.295863 6.9949 13.250213l25.333125 111.472877h-46.531684z m103.880959 3.252406H453.100263L432.071007 757.846256c-0.882159-4.517726 2.575193-8.705755 7.182026-8.705756h48.483127v116.863851z m86.638751-104.843314l-27.667728 104.834403h-30.839938V749.131589h49.240536c6.290955 0 10.871056 5.952349 9.26713 12.029448zM718.443133 621.86895L613.252302 862.751945h-35.705181l19.888685-109.387772c1.14057-6.290955 4.098923-12.109643 8.50081-16.752119l110.332306-116.186638c1.01582-1.078195 2.762317 0.089107 2.174211 1.443534z" p-id="6686"></path></svg>
